<svg xmlns="http://www.w3.org/2000/svg" xmlns:xlink="http://www.w3.org/1999/xlink" width="60" height="60" viewBox="0 0 60 60">
  <defs>
    <clipPath id="clip-客服svg">
      <rect width="60" height="60"/>
    </clipPath>
  </defs>
  <g id="客服svg" clip-path="url(#clip-客服svg)">
    <path id="联合_4" data-name="联合 4" d="M53,60H6a6,6,0,0,1-6-6q0-.252.02-.5Q0,53.234,0,52.961V7.039q0-.273.021-.54C.007,6.334,0,6.169,0,6A6,6,0,0,1,6,0H54a6,6,0,0,1,6,6c0,.168-.007.334-.021.5q.02.267.021.54V52.961q0,.273-.021.54c.014.165.021.33.021.5a6,6,0,0,1-6,6ZM23.581,48.785A6.672,6.672,0,0,0,29.793,55.5h.293a19.555,19.555,0,0,0,7.332-1.466A19.216,19.216,0,0,0,43.552,50,18.649,18.649,0,0,0,49.2,37.784a9.762,9.762,0,0,0,3.543-2.3v-.074a10.045,10.045,0,0,0-4.056-16.668,18.059,18.059,0,0,0-1-2.982,18.747,18.747,0,0,0-4.154-5.988,19.379,19.379,0,0,0-6.134-3.959,19.773,19.773,0,0,0-15.007,0,19.221,19.221,0,0,0-6.134,3.959,18.706,18.706,0,0,0-4.032,6.061,18.861,18.861,0,0,0-1.247,3.079,9.637,9.637,0,0,0-2.444,1.3,10.069,10.069,0,0,0,3.691,18.06h.415a2.029,2.029,0,0,0,1.443-.61,2.005,2.005,0,0,0,.586-1.443v-13a14.521,14.521,0,0,1,4.4-10.461,15.569,15.569,0,0,1,21.6,0,14.52,14.52,0,0,1,4.45,10.463V36.66a14.518,14.518,0,0,1-4.351,10.607,15.1,15.1,0,0,1-4.106,2.859,6.865,6.865,0,0,0,0-1.246,6.672,6.672,0,0,0-6.575-6.7h-.171A6.672,6.672,0,0,0,23.581,48.785Z" transform="translate(0)" fill="#5d86f2"/>
  </g>
</svg>
